<svg width="55" height="46" viewBox="0 0 55 46" fill="none" xmlns="http://www.w3.org/2000/svg">
<g filter="url(#filter0_d_33_204)">
<mask id="mask0_33_204" style="mask-type:luminance" maskUnits="userSpaceOnUse" x="1" y="0" width="54" height="46">
<path d="M54.658 0H1.67188V45.726H54.658V0Z" fill="white"/>
</mask>
<g mask="url(#mask0_33_204)">
<path d="M10.5488 15.5137L18.7035 17.5453L27.6664 11.9277L14.8034 12.2459C14.6772 12.2508 14.5548 12.2846 14.4488 12.3439L10.3786 14.3633C10.252 14.4238 10.1494 14.5157 10.0839 14.6271C10.0185 14.7386 9.99336 14.8643 10.0117 14.9883C10.03 15.1122 10.091 15.2285 10.1867 15.3222C10.2825 15.4158 10.4086 15.4825 10.5488 15.5137Z" fill="#7559FF"/>
<path d="M50.6415 9.2229L41.7069 7.55843C40.9556 7.41766 40.1779 7.41803 39.4265 7.55952C38.6754 7.701 37.9682 7.98029 37.3531 8.37844L10.3649 25.3046L3.88375 25.0598C3.51253 25.0488 3.1467 25.1389 2.83795 25.3171C2.5292 25.4954 2.29312 25.7528 2.16304 26.053C2.03296 26.3533 2.01545 26.6811 2.113 26.9904C2.21054 27.2997 2.4182 27.5748 2.70666 27.7768L9.0176 32.0971C9.1215 32.1695 9.24516 32.2175 9.37677 32.2368C9.50837 32.2561 9.64351 32.2459 9.76924 32.2072C11.5704 31.6075 18.2784 28.5355 26.2061 24.7783L27.7944 38.8651C27.8079 38.9871 27.8597 39.1035 27.9444 39.2021C28.0288 39.3005 28.143 39.3771 28.2744 39.4238C28.4056 39.4704 28.5493 39.4851 28.6897 39.4664C28.83 39.4478 28.9618 39.3964 29.0708 39.3178L32.6162 36.7722C32.8103 36.6318 32.9409 36.4368 32.9851 36.2216L36.3462 19.9562C42.0189 17.2392 47.4364 14.6079 51.2513 12.7477C51.6473 12.5617 51.9674 12.2753 52.1684 11.9271C52.3692 11.579 52.4414 11.1859 52.3747 10.8012C52.3082 10.4165 52.1063 10.0588 51.7962 9.77648C51.4862 9.49416 51.0832 9.3009 50.6415 9.2229Z" fill="#3619CC"/>
<path d="M50.6415 9.2229L41.7069 7.55843C40.9556 7.41766 40.1779 7.41803 39.4265 7.55952C38.6754 7.701 37.9682 7.98029 37.3531 8.37844L10.3649 25.3046L3.88375 25.0598C3.51253 25.0488 3.1467 25.1389 2.83795 25.3171C2.5292 25.4954 2.29312 25.7528 2.16304 26.053C2.03296 26.3533 2.01545 26.6811 2.113 26.9904C2.21054 27.2997 2.4182 27.5748 2.70666 27.7768L9.0176 32.0971C9.1215 32.1695 9.24516 32.2175 9.37677 32.2368C9.50837 32.2561 9.64351 32.2459 9.76924 32.2072C11.5704 31.6075 18.2784 28.5355 26.2061 24.7783L27.7944 38.8651C27.8079 38.9871 27.8597 39.1035 27.9444 39.2021C28.0288 39.3005 28.143 39.3771 28.2744 39.4238C28.4056 39.4704 28.5493 39.4851 28.6897 39.4664C28.83 39.4478 28.9618 39.3964 29.0708 39.3178L32.6162 36.7722C32.8103 36.6318 32.9409 36.4368 32.9851 36.2216L36.3462 19.9562C42.0189 17.2392 47.4364 14.6079 51.2513 12.7477C51.6473 12.5617 51.9674 12.2753 52.1684 11.9271C52.3692 11.579 52.4414 11.1859 52.3747 10.8012C52.3082 10.4165 52.1063 10.0588 51.7962 9.77648C51.4862 9.49416 51.0832 9.3009 50.6415 9.2229Z" fill="url(#paint0_linear_33_204)" fill-opacity="0.6"/>
</g>
</g>
<defs>
<filter id="filter0_d_33_204" x="0.00077939" y="7.45312" width="54.4477" height="36.1215" filterUnits="userSpaceOnUse" color-interpolation-filters="sRGB">
<feFlood flood-opacity="0" result="BackgroundImageFix"/>
<feColorMatrix in="SourceAlpha" type="matrix" values="0 0 0 0 0 0 0 0 0 0 0 0 0 0 0 0 0 0 127 0" result="hardAlpha"/>
<feOffset dy="2.05"/>
<feGaussianBlur stdDeviation="1.025"/>
<feComposite in2="hardAlpha" operator="out"/>
<feColorMatrix type="matrix" values="0 0 0 0 0 0 0 0 0 0 0 0 0 0 0 0 0 0 0.25 0"/>
<feBlend mode="normal" in2="BackgroundImageFix" result="effect1_dropShadow_33_204"/>
<feBlend mode="normal" in="SourceGraphic" in2="effect1_dropShadow_33_204" result="shape"/>
</filter>
<linearGradient id="paint0_linear_33_204" x1="35.4385" y1="14.351" x2="57.1097" y2="10.519" gradientUnits="userSpaceOnUse">
<stop stop-color="#8F79FF" stop-opacity="0"/>
<stop offset="0.987093" stop-color="#8F79FF"/>
</linearGradient>
</defs>
</svg>
