<svg width="76" height="76" viewBox="0 0 76 76" fill="none" xmlns="http://www.w3.org/2000/svg">
<path d="M37.7994 16.1749C39.8287 16.1749 41.4738 13.7354 41.4738 10.7261C41.4738 7.71684 39.8287 5.27734 37.7994 5.27734C35.7701 5.27734 34.125 7.71684 34.125 10.7261C34.125 13.7354 35.7701 16.1749 37.7994 16.1749Z" fill="#F4AA41"/>
<path d="M36.8781 24.1271C38.3131 22.6921 37.7513 19.8039 35.6235 17.676C33.4956 15.5481 30.6073 14.9864 29.1724 16.4213C27.7375 17.8563 28.2992 20.7445 30.4271 22.8724C32.555 25.0003 35.4432 25.562 36.8781 24.1271Z" fill="#F1B31C"/>
<path d="M36.8781 32.7189C38.3131 31.2839 37.7513 28.3957 35.6235 26.2678C33.4956 24.1399 30.6073 23.5782 29.1724 25.0131C27.7375 26.4481 28.2992 29.3363 30.4271 31.4642C32.555 33.5921 35.4432 34.1538 36.8781 32.7189Z" fill="#F1B31C"/>
<path d="M36.8781 41.3126C38.3131 39.8777 37.7513 36.9895 35.6235 34.8616C33.4956 32.7337 30.6073 32.172 29.1724 33.6069C27.7375 35.0418 28.2992 37.9301 30.4271 40.0579C32.555 42.1858 35.4432 42.7476 36.8781 41.3126Z" fill="#F1B31C"/>
<path d="M36.8781 49.9054C38.3131 48.4705 37.7513 45.5822 35.6235 43.4543C33.4956 41.3265 30.6073 40.7647 29.1724 42.1997C27.7375 43.6346 28.2992 46.5228 30.4271 48.6507C32.555 50.7786 35.4432 51.3403 36.8781 49.9054Z" fill="#F1B31C"/>
<path d="M36.8772 58.4982C38.3121 57.0632 37.7504 54.175 35.6225 52.0471C33.4946 49.9192 30.6064 49.3575 29.1714 50.7924C27.7365 52.2274 28.2982 55.1156 30.4261 57.2435C32.554 59.3714 35.4422 59.9331 36.8772 58.4982Z" fill="#F1B31C"/>
<path d="M45.5727 22.8718C47.7006 20.7439 48.2623 17.8557 46.8274 16.4208C45.3924 14.9858 42.5042 15.5476 40.3763 17.6755C38.2484 19.8033 37.6867 22.6916 39.1216 24.1265C40.5566 25.5614 43.4448 24.9997 45.5727 22.8718Z" fill="#F1B31C"/>
<path d="M45.5727 31.4646C47.7006 29.3367 48.2623 26.4485 46.8274 25.0135C45.3924 23.5786 42.5042 24.1403 40.3763 26.2682C38.2484 28.3961 37.6867 31.2843 39.1216 32.7193C40.5566 34.1542 43.4448 33.5925 45.5727 31.4646Z" fill="#F1B31C"/>
<path d="M45.5727 40.0574C47.7006 37.9295 48.2623 35.0413 46.8274 33.6063C45.3924 32.1714 42.5042 32.7331 40.3763 34.861C38.2484 36.9889 37.6867 39.8771 39.1216 41.3121C40.5566 42.747 43.4448 42.1852 45.5727 40.0574Z" fill="#F1B31C"/>
<path d="M45.5727 48.6511C47.7006 46.5232 48.2623 43.635 46.8274 42.2001C45.3924 40.7651 42.5042 41.3269 40.3763 43.4547C38.2484 45.5826 37.6867 48.4709 39.1216 49.9058C40.5566 51.3407 43.4448 50.779 45.5727 48.6511Z" fill="#F1B31C"/>
<path d="M45.5727 57.2439C47.7006 55.116 48.2623 52.2278 46.8274 50.7928C45.3924 49.3579 42.5042 49.9196 40.3763 52.0475C38.2484 54.1754 37.6867 57.0636 39.1216 58.4986C40.5566 59.9335 43.4448 59.3718 45.5727 57.2439Z" fill="#F1B31C"/>
<path d="M37.7783 59.1113V68.6113" stroke="black" stroke-width="2" stroke-miterlimit="10"/>
<path d="M37.7994 16.1749C39.8287 16.1749 41.4738 13.7354 41.4738 10.7261C41.4738 7.71684 39.8287 5.27734 37.7994 5.27734C35.7701 5.27734 34.125 7.71684 34.125 10.7261C34.125 13.7354 35.7701 16.1749 37.7994 16.1749Z" fill="#F4AA41"/>
<path d="M36.8781 24.1271C38.3131 22.6921 37.7513 19.8039 35.6235 17.676C33.4956 15.5481 30.6073 14.9864 29.1724 16.4213C27.7375 17.8563 28.2992 20.7445 30.4271 22.8724C32.555 25.0003 35.4432 25.562 36.8781 24.1271Z" fill="#F1B31C"/>
<path d="M36.8781 32.7189C38.3131 31.2839 37.7513 28.3957 35.6235 26.2678C33.4956 24.1399 30.6073 23.5782 29.1724 25.0131C27.7375 26.4481 28.2992 29.3363 30.4271 31.4642C32.555 33.5921 35.4432 34.1538 36.8781 32.7189Z" fill="#F1B31C"/>
<path d="M36.8781 41.3126C38.3131 39.8777 37.7513 36.9895 35.6235 34.8616C33.4956 32.7337 30.6073 32.172 29.1724 33.6069C27.7375 35.0418 28.2992 37.9301 30.4271 40.0579C32.555 42.1858 35.4432 42.7476 36.8781 41.3126Z" fill="#F1B31C"/>
<path d="M36.8781 49.9054C38.3131 48.4705 37.7513 45.5822 35.6235 43.4543C33.4956 41.3265 30.6073 40.7647 29.1724 42.1997C27.7375 43.6346 28.2992 46.5228 30.4271 48.6507C32.555 50.7786 35.4432 51.3403 36.8781 49.9054Z" fill="#F1B31C"/>
<path d="M36.8772 58.4982C38.3121 57.0632 37.7504 54.175 35.6225 52.0471C33.4946 49.9192 30.6064 49.3575 29.1714 50.7924C27.7365 52.2274 28.2982 55.1156 30.4261 57.2435C32.554 59.3714 35.4422 59.9331 36.8772 58.4982Z" fill="#F1B31C"/>
<path d="M45.5727 22.8718C47.7006 20.7439 48.2623 17.8557 46.8274 16.4208C45.3924 14.9858 42.5042 15.5476 40.3763 17.6755C38.2484 19.8033 37.6867 22.6916 39.1216 24.1265C40.5566 25.5614 43.4448 24.9997 45.5727 22.8718Z" fill="#F1B31C"/>
<path d="M45.5727 31.4646C47.7006 29.3367 48.2623 26.4485 46.8274 25.0135C45.3924 23.5786 42.5042 24.1403 40.3763 26.2682C38.2484 28.3961 37.6867 31.2843 39.1216 32.7193C40.5566 34.1542 43.4448 33.5925 45.5727 31.4646Z" fill="#F1B31C"/>
<path d="M45.5727 40.0574C47.7006 37.9295 48.2623 35.0413 46.8274 33.6063C45.3924 32.1714 42.5042 32.7331 40.3763 34.861C38.2484 36.9889 37.6867 39.8771 39.1216 41.3121C40.5566 42.747 43.4448 42.1852 45.5727 40.0574Z" fill="#F1B31C"/>
<path d="M45.5727 48.6511C47.7006 46.5232 48.2623 43.635 46.8274 42.2001C45.3924 40.7651 42.5042 41.3269 40.3763 43.4547C38.2484 45.5826 37.6867 48.4709 39.1216 49.9058C40.5566 51.3407 43.4448 50.779 45.5727 48.6511Z" fill="#F1B31C"/>
<path d="M45.5727 57.2439C47.7006 55.116 48.2623 52.2278 46.8274 50.7928C45.3924 49.3579 42.5042 49.9196 40.3763 52.0475C38.2484 54.1754 37.6867 57.0636 39.1216 58.4986C40.5566 59.9335 43.4448 59.3718 45.5727 57.2439Z" fill="#F1B31C"/>
<path d="M37.7994 16.1749C39.8287 16.1749 41.4738 13.7354 41.4738 10.7261C41.4738 7.71684 39.8287 5.27734 37.7994 5.27734C35.7701 5.27734 34.125 7.71684 34.125 10.7261C34.125 13.7354 35.7701 16.1749 37.7994 16.1749Z" fill="#F1B31C"/>
<path d="M36.8781 24.1271C38.3131 22.6921 37.7513 19.8039 35.6235 17.676C33.4956 15.5481 30.6073 14.9864 29.1724 16.4213C27.7375 17.8563 28.2992 20.7445 30.4271 22.8724C32.555 25.0003 35.4432 25.562 36.8781 24.1271Z" fill="#F1B31C"/>
<path d="M36.8781 32.7189C38.3131 31.2839 37.7513 28.3957 35.6235 26.2678C33.4956 24.1399 30.6073 23.5782 29.1724 25.0131C27.7375 26.4481 28.2992 29.3363 30.4271 31.4642C32.555 33.5921 35.4432 34.1538 36.8781 32.7189Z" fill="#F1B31C"/>
<path d="M36.8781 41.3126C38.3131 39.8777 37.7513 36.9895 35.6235 34.8616C33.4956 32.7337 30.6073 32.172 29.1724 33.6069C27.7375 35.0418 28.2992 37.9301 30.4271 40.0579C32.555 42.1858 35.4432 42.7476 36.8781 41.3126Z" fill="#F1B31C"/>
<path d="M36.8781 49.9054C38.3131 48.4705 37.7513 45.5822 35.6235 43.4543C33.4956 41.3265 30.6073 40.7647 29.1724 42.1997C27.7375 43.6346 28.2992 46.5228 30.4271 48.6507C32.555 50.7786 35.4432 51.3403 36.8781 49.9054Z" fill="#F1B31C"/>
<path d="M36.8772 58.4982C38.3121 57.0632 37.7504 54.175 35.6225 52.0471C33.4946 49.9192 30.6064 49.3575 29.1714 50.7924C27.7365 52.2274 28.2982 55.1156 30.4261 57.2435C32.554 59.3714 35.4422 59.9331 36.8772 58.4982Z" fill="#F1B31C"/>
<path d="M45.5727 22.8718C47.7006 20.7439 48.2623 17.8557 46.8274 16.4208C45.3924 14.9858 42.5042 15.5476 40.3763 17.6755C38.2484 19.8033 37.6867 22.6916 39.1216 24.1265C40.5566 25.5614 43.4448 24.9997 45.5727 22.8718Z" fill="#F1B31C"/>
<path d="M45.5727 31.4646C47.7006 29.3367 48.2623 26.4485 46.8274 25.0135C45.3924 23.5786 42.5042 24.1403 40.3763 26.2682C38.2484 28.3961 37.6867 31.2843 39.1216 32.7193C40.5566 34.1542 43.4448 33.5925 45.5727 31.4646Z" fill="#F1B31C"/>
<path d="M45.5727 40.0574C47.7006 37.9295 48.2623 35.0413 46.8274 33.6063C45.3924 32.1714 42.5042 32.7331 40.3763 34.861C38.2484 36.9889 37.6867 39.8771 39.1216 41.3121C40.5566 42.747 43.4448 42.1852 45.5727 40.0574Z" fill="#F1B31C"/>
<path d="M45.5727 48.6511C47.7006 46.5232 48.2623 43.635 46.8274 42.2001C45.3924 40.7651 42.5042 41.3269 40.3763 43.4547C38.2484 45.5826 37.6867 48.4709 39.1216 49.9058C40.5566 51.3407 43.4448 50.779 45.5727 48.6511Z" fill="#F1B31C"/>
<path d="M45.5727 57.2439C47.7006 55.116 48.2623 52.2278 46.8274 50.7928C45.3924 49.3579 42.5042 49.9196 40.3763 52.0475C38.2484 54.1754 37.6867 57.0636 39.1216 58.4986C40.5566 59.9335 43.4448 59.3718 45.5727 57.2439Z" fill="#F4AA41"/>
<path d="M37.7994 16.1749C39.8287 16.1749 41.4738 13.7354 41.4738 10.7261C41.4738 7.71684 39.8287 5.27734 37.7994 5.27734C35.7701 5.27734 34.125 7.71684 34.125 10.7261C34.125 13.7354 35.7701 16.1749 37.7994 16.1749Z" stroke="black" stroke-width="2" stroke-miterlimit="10"/>
<path d="M36.8781 24.1261C38.3131 22.6912 37.7513 19.8029 35.6235 17.6751C33.4956 15.5472 30.6073 14.9854 29.1724 16.4204C27.7375 17.8553 28.2992 20.7435 30.4271 22.8714C32.555 24.9993 35.4432 25.561 36.8781 24.1261Z" stroke="black" stroke-width="2" stroke-miterlimit="10"/>
<path d="M36.8781 32.7189C38.3131 31.2839 37.7513 28.3957 35.6235 26.2678C33.4956 24.1399 30.6073 23.5782 29.1724 25.0131C27.7375 26.4481 28.2992 29.3363 30.4271 31.4642C32.555 33.5921 35.4432 34.1538 36.8781 32.7189Z" stroke="black" stroke-width="2" stroke-miterlimit="10"/>
<path d="M36.8781 41.3117C38.3131 39.8767 37.7513 36.9885 35.6235 34.8606C33.4956 32.7327 30.6073 32.171 29.1724 33.6059C27.7375 35.0409 28.2992 37.9291 30.4271 40.057C32.555 42.1848 35.4432 42.7466 36.8781 41.3117Z" stroke="black" stroke-width="2" stroke-miterlimit="10"/>
<path d="M36.8781 49.9054C38.3131 48.4705 37.7513 45.5822 35.6235 43.4543C33.4956 41.3265 30.6073 40.7647 29.1724 42.1997C27.7375 43.6346 28.2992 46.5228 30.4271 48.6507C32.555 50.7786 35.4432 51.3403 36.8781 49.9054Z" stroke="black" stroke-width="2" stroke-miterlimit="10"/>
<path d="M36.8772 58.4982C38.3121 57.0632 37.7504 54.175 35.6225 52.0471C33.4946 49.9192 30.6064 49.3575 29.1714 50.7924C27.7365 52.2274 28.2982 55.1156 30.4261 57.2435C32.554 59.3714 35.4422 59.9331 36.8772 58.4982Z" stroke="black" stroke-width="2" stroke-miterlimit="10"/>
<path d="M45.5727 22.8718C47.7006 20.7439 48.2623 17.8557 46.8274 16.4208C45.3924 14.9858 42.5042 15.5476 40.3763 17.6755C38.2484 19.8033 37.6867 22.6916 39.1216 24.1265C40.5566 25.5614 43.4448 24.9997 45.5727 22.8718Z" stroke="black" stroke-width="2" stroke-miterlimit="10"/>
<path d="M45.5727 31.4636C47.7006 29.3357 48.2623 26.4475 46.8274 25.0126C45.3924 23.5776 42.5042 24.1394 40.3763 26.2672C38.2484 28.3951 37.6867 31.2834 39.1216 32.7183C40.5566 34.1532 43.4448 33.5915 45.5727 31.4636Z" stroke="black" stroke-width="2" stroke-miterlimit="10"/>
<path d="M45.5727 40.0574C47.7006 37.9295 48.2623 35.0413 46.8274 33.6063C45.3924 32.1714 42.5042 32.7331 40.3763 34.861C38.2484 36.9889 37.6867 39.8771 39.1216 41.3121C40.5566 42.747 43.4448 42.1852 45.5727 40.0574Z" stroke="black" stroke-width="2" stroke-miterlimit="10"/>
<path d="M45.5727 48.6501C47.7006 46.5223 48.2623 43.634 46.8274 42.1991C45.3924 40.7642 42.5042 41.3259 40.3763 43.4538C38.2484 45.5817 37.6867 48.4699 39.1216 49.9048C40.5566 51.3398 43.4448 50.778 45.5727 48.6501Z" stroke="black" stroke-width="2" stroke-miterlimit="10"/>
<path d="M45.5717 57.2429C47.6996 55.115 48.2613 52.2268 46.8264 50.7919C45.3914 49.3569 42.5032 49.9187 40.3753 52.0465C38.2475 54.1744 37.6857 57.0627 39.1206 58.4976C40.5556 59.9325 43.4438 59.3708 45.5717 57.2429Z" stroke="black" stroke-width="2" stroke-miterlimit="10"/>
</svg>
