<svg width="76" height="76" viewBox="0 0 76 76" fill="none" xmlns="http://www.w3.org/2000/svg">
<path d="M54.2356 6.9495C44.2606 2.24699 32.3381 5.287 25.8306 14.1695L13.3856 31.127C4.00437 43.9045 8.63562 62.0732 22.9806 68.8182C35.6394 74.7795 50.6969 69.2695 56.5631 56.587L65.3744 37.492C70.6706 25.997 65.7069 12.3645 54.2356 6.9495Z" fill="#F3AD61"/>
<path d="M49.7467 15.5467C49.7467 16.4285 49.3964 17.2743 48.7728 17.8978C48.1493 18.5214 47.3035 18.8717 46.4217 18.8717C45.5398 18.8717 44.6941 18.5214 44.0705 17.8978C43.447 17.2743 43.0967 16.4285 43.0967 15.5467C43.0967 14.6648 43.447 13.8191 44.0705 13.1955C44.6941 12.572 45.5398 12.2217 46.4217 12.2217C47.3035 12.2217 48.1493 12.572 48.7728 13.1955C49.3964 13.8191 49.7467 14.6648 49.7467 15.5467ZM42.9304 36.3992C44.0831 36.3992 45.1886 35.9413 46.0037 35.1262C46.8188 34.3111 47.2767 33.2056 47.2767 32.0529C47.2767 30.9002 46.8188 29.7947 46.0037 28.9797C45.1886 28.1646 44.0831 27.7067 42.9304 27.7067C41.7777 27.7067 40.6722 28.1646 39.8572 28.9797C39.0421 29.7947 38.5842 30.9002 38.5842 32.0529C38.5842 33.2056 39.0421 34.3111 39.8572 35.1262C40.6722 35.9413 41.7777 36.3992 42.9304 36.3992ZM22.7429 49.1292C23.8011 49.1292 24.816 48.7088 25.5643 47.9605C26.3126 47.2123 26.7329 46.1974 26.7329 45.1392C26.7329 44.081 26.3126 43.0661 25.5643 42.3178C24.816 41.5696 23.8011 41.1492 22.7429 41.1492C21.6847 41.1492 20.6698 41.5696 19.9216 42.3178C19.1733 43.0661 18.7529 44.081 18.7529 45.1392C18.7529 46.1974 19.1733 47.2123 19.9216 47.9605C20.6698 48.7088 21.6847 49.1292 22.7429 49.1292ZM28.6092 56.7054C28.6092 57.4361 28.3189 58.1368 27.8023 58.6535C27.2856 59.1702 26.5849 59.4604 25.8542 59.4604C25.1235 59.4604 24.4228 59.1702 23.9061 58.6535C23.3894 58.1368 23.0992 57.4361 23.0992 56.7054C23.0992 55.9748 23.3894 55.274 23.9061 54.7574C24.4228 54.2407 25.1235 53.9504 25.8542 53.9504C26.5849 53.9504 27.2856 54.2407 27.8023 54.7574C28.3189 55.274 28.6092 55.9748 28.6092 56.7054ZM57.1804 37.5629C57.9111 37.5629 58.6118 37.2727 59.1285 36.756C59.6452 36.2393 59.9354 35.5386 59.9354 34.8079C59.9354 34.0773 59.6452 33.3765 59.1285 32.8599C58.6118 32.3432 57.9111 32.0529 57.1804 32.0529C56.4498 32.0529 55.749 32.3432 55.2323 32.8599C54.7157 33.3765 54.4254 34.0773 54.4254 34.8079C54.4254 35.5386 54.7157 36.2393 55.2323 36.756C55.749 37.2727 56.4498 37.5629 57.1804 37.5629Z" fill="#D3883E"/>
</svg>
